<?xml version="1.0" encoding="UTF-8" standalone="no"?><!DOCTYPE svg PUBLIC "-//W3C//DTD SVG 1.1//EN" "http://www.w3.org/Graphics/SVG/1.1/DTD/svg11.dtd"><svg width="100%" height="100%" viewBox="0 0 1000 1000" version="1.1" xmlns="http://www.w3.org/2000/svg" xmlns:xlink="http://www.w3.org/1999/xlink" xml:space="preserve" xmlns:serif="http://www.serif.com/" style="fill-rule:evenodd;clip-rule:evenodd;stroke-linejoin:round;stroke-miterlimit:2;"><defs><linearGradient id="ckStarGradient" gradientUnits="userSpaceOnUse" x1="0" y1="1000" x2="1000" y2="0"><stop offset="0%" stop-color="#042C53"/><stop offset="52%" stop-color="#185FA5"/><stop offset="100%" stop-color="#85B7EB"/></linearGradient></defs><rect id="CK_LOGO_BLACK" x="0" y="0" width="1000" height="1000" style="fill:none;"/><g id="CK_LOGO_BLACK1" serif:id="CK_LOGO_BLACK"><g><path style="fill:url(#ckStarGradient);" d="M70.936,797.302c-1.948,0.994 -4.328,0.443 -5.642,-1.304c-1.313,-1.748 -1.181,-4.187 0.314,-5.782c92.524,-98.702 520.309,-555.054 575.517,-613.949c1.145,-1.221 2.873,-1.706 4.486,-1.259c1.613,0.447 2.844,1.753 3.197,3.389c5.817,27.023 23.926,111.141 28.255,131.252c0.519,2.411 2.882,3.955 5.298,3.462c27.834,-5.672 181.3,-36.944 238.841,-48.669c2.098,-0.428 4.207,0.683 5.042,2.654c0.835,1.972 0.165,4.259 -1.602,5.469c-52.781,36.124 -202.496,138.593 -223.245,152.794c-1.459,0.999 -2.198,2.76 -1.889,4.501c4.446,25.033 36.753,206.937 44.036,247.943c0.289,1.628 -0.337,3.283 -1.631,4.311c-1.295,1.028 -3.048,1.264 -4.568,0.614c-39.351,-16.819 -217.826,-93.103 -238.408,-101.9c-1.228,-0.525 -2.624,-0.477 -3.813,0.129c-26.958,13.749 -336.626,171.686 -424.188,216.345Z"/><path style="fill:url(#ckStarGradient);" d="M361.973,432.915c-1.361,1.46 -3.519,1.855 -5.31,0.972c-4.929,-2.432 -14.182,-6.996 -14.182,-6.996c-3.14,-1.549 -7.454,-0.679 -9.629,1.941c0,-0 -7.88,9.493 -7.88,9.493c-2.174,2.62 -1.391,6.004 1.748,7.553c0,-0 5.817,2.869 10.406,5.133c1.283,0.633 2.192,1.835 2.449,3.243c0.258,1.407 -0.166,2.854 -1.142,3.9c-7.899,8.47 -24.862,26.656 -31.083,33.326c-1.388,1.489 -3.6,1.867 -5.404,0.924c-13.993,-7.311 -72.357,-37.808 -96.947,-50.657c-1.685,-0.88 -2.639,-2.72 -2.389,-4.605c0.25,-1.884 1.651,-3.411 3.508,-3.822c36.122,-7.988 142.95,-31.614 181.666,-40.176c1.935,-0.428 3.923,0.453 4.906,2.174c0.982,1.72 0.731,3.88 -0.62,5.329c-9.932,10.649 -24.511,26.279 -30.097,32.268Z"/></g><path d="M43.936,805.19l599,-639c1.417,-1.512 3.556,-2.112 5.553,-1.558c1.997,0.553 3.521,2.17 3.957,4.196l29.841,138.613l259.601,-52.9c2.597,-0.529 5.208,0.845 6.242,3.286c1.034,2.442 0.204,5.273 -1.983,6.77l-241.033,164.969l45.371,255.46c0.358,2.015 -0.417,4.063 -2.02,5.336c-1.602,1.273 -3.773,1.565 -5.655,0.761l-245.602,-104.975l-446.677,227.815c-2.411,1.23 -5.357,0.548 -6.984,-1.615c-1.627,-2.164 -1.463,-5.183 0.389,-7.158Zm0.729,0.684c-1.519,1.62 -1.653,4.098 -0.319,5.873c1.335,1.775 3.752,2.334 5.731,1.325l446.885,-227.922c0.132,-0.067 0.288,-0.072 0.424,-0.014l245.817,105.067c1.544,0.66 3.326,0.42 4.64,-0.624c1.315,-1.044 1.951,-2.725 1.658,-4.378l-45.428,-255.778c-0.034,-0.193 0.048,-0.389 0.21,-0.5l241.299,-165.151c1.795,-1.228 2.475,-3.552 1.627,-5.555c-0.848,-2.003 -2.99,-3.13 -5.122,-2.696l-260.085,52.999c-0.269,0.054 -0.531,-0.117 -0.589,-0.385l-29.944,-139.097c-0.358,-1.662 -1.609,-2.988 -3.247,-3.443c-1.639,-0.454 -3.394,0.038 -4.557,1.279l-599,639Z" style="fill:none;"/></g></svg>