<?xml version="1.0" encoding="UTF-8" standalone="no"?><!DOCTYPE svg PUBLIC "-//W3C//DTD SVG 1.1//EN" "http://www.w3.org/Graphics/SVG/1.1/DTD/svg11.dtd"><svg width="100%" height="100%" viewBox="0 0 1563 1563" version="1.1" xmlns="http://www.w3.org/2000/svg" xmlns:xlink="http://www.w3.org/1999/xlink" xml:space="preserve" xmlns:serif="http://www.serif.com/" style="fill-rule:evenodd;clip-rule:evenodd;stroke-linecap:round;stroke-linejoin:round;"><g id="black-and-white-logo" serif:id="black and white logo"><path d="M781.25,1212.5c-237.917,0 -431.25,-193.333 -431.25,-431.25c0,-237.917 193.333,-431.25 431.25,-431.25c237.917,0 431.25,193.333 431.25,431.25c0,237.917 -193.333,431.25 -431.25,431.25Z" style="fill:#fff;fill-rule:nonzero;"/><circle cx="781.25" cy="781.25" r="381.25" style="fill:#fff;stroke:#000;stroke-width:20.83px;"/><path d="M422.5,716.667c-13.333,-0 -24.583,-5.834 -32.083,-17.084c-10.834,-15.416 -12.917,-38.75 -5.417,-58.75c17.5,-47.083 85,-60.833 123.75,-64.583l3.333,0c12.917,-0.417 26.667,-0.833 39.167,-3.333c4.167,-0.834 8.333,-2.5 12.083,-3.75c5.834,-2.084 11.667,-4.584 18.75,-4.584l0.417,0c5.417,0 9.583,2.5 12.5,6.25c6.667,8.75 5,24.167 3.333,32.917c-5.416,22.5 -30,30.417 -50,30.417c-6.392,-0 -7.9,-0.245 -7.9,-0.245c0,-0 -0.665,-0.022 -2.933,-0.589c-12.917,-2.5 -26.667,-4.583 -39.583,-4.583c-12.917,0 -19.167,1.667 -27.084,4.583c-9.166,3.334 -19.166,10 -20.833,18.334c-0.833,4.583 0.833,9.166 5.833,13.75c2.084,2.083 3.75,4.166 4.584,7.5c2.916,20.833 -14.167,40.416 -30.417,43.333c-2.5,0 -5,0.417 -7.083,0.417l-0.417,-0Z" style="fill-rule:nonzero;stroke:#fff;stroke-width:10.42px;stroke-linecap:butt;stroke-miterlimit:2;"/><path d="M424.37,835.805c-5,-0 -6.086,0.005 -11.87,-0.805c-20.417,-4.583 -37.5,-20.417 -42.5,-39.583c-5.417,-20.834 5,-43.75 23.333,-52.5c3.334,-1.667 5.834,-2.084 8.75,-2.084c2.917,0 3.334,0 4.584,0.834c3.75,1.666 5.833,4.583 7.916,7.083c0.417,0.417 0.834,1.25 1.25,1.667c4.167,5.416 11.667,8.333 19.584,8.333c7.916,-0 12.083,-1.667 17.083,-4.583c8.75,-5 16.25,-13.75 23.333,-27.084c-5,-0.416 -9.583,-2.916 -12.5,-6.666c-5,-6.25 -5.416,-15 -0.833,-21.667c5,-7.5 14.167,-9.583 23.75,-10.417c1.25,-12.083 5,-25 11.25,-38.75c2.083,-5 5,-10.416 9.583,-14.166c3.334,-2.917 7.917,-4.584 12.084,-4.584c4.166,0 4.583,0.417 6.666,1.667c5.834,2.917 9.167,10.417 8.75,18.333c0,4.584 -2.083,8.75 -3.333,12.917c-0.417,1.25 -0.833,2.5 -1.25,3.75c-1.667,5.417 -2.5,12.917 1.667,15.417c1.25,0.833 2.5,1.25 4.583,1.25c2.5,-0 5.833,-0.834 9.167,-1.667c3.75,-0.833 7.5,-2.083 10.833,-2.083c3.333,-0 7.083,1.25 9.583,3.333c5.834,5 6.25,13.333 3.75,19.167c-2.5,5 -6.666,9.166 -13.333,12.5c-10.833,5.833 -23.333,7.5 -35,8.75c-3.75,21.666 -8.333,37.916 -15,52.5c-8.75,19.583 -21.25,35 -36.25,45.416c-12.917,8.75 -28.333,13.75 -42.917,13.75l-2.713,-0.028Z" style="fill-rule:nonzero;stroke:#fff;stroke-width:10.42px;stroke-linecap:butt;stroke-miterlimit:2;"/><path d="M1075.59,803.209c-11.644,13.23 -51.007,6.791 -51.423,6.791c-15,-5.417 -26.667,-18.333 -31.667,-35.833c-3.333,-10.834 -3.333,-22.5 -1.25,-33.334c-2.917,2.084 -5.833,4.167 -9.167,5.834c0,-0 -0.833,-0 -1.25,0.416c-4.166,1.25 -8.75,2.084 -13.333,2.084c-11.25,-0 -20.833,-4.584 -27.917,-13.75c-10,-12.917 -12.916,-34.167 -7.5,-55c2.084,-7.917 2.084,-13.334 0,-17.5c-0.416,-0.834 -0.833,-1.667 -1.25,-2.084c-14.583,6.667 -16.25,25.417 -14.583,40c0,5.834 0,11.25 0.417,16.25l-0,8.334c-0,6.25 -0,17.083 -9.167,27.083c-5,5.833 -13.333,9.167 -22.083,9.167c-8.75,-0 -17.084,-3.75 -22.084,-10.417c-1.25,-1.25 -1.666,-2.917 -2.5,-4.583c0,-0 -0.416,0.416 -0.833,0.833c-7.917,8.75 -17.083,19.583 -32.083,20.417l-1.667,-0c-12.917,-0 -22.917,-5 -30,-14.167c-10.417,-13.333 -12.5,-36.667 -5.833,-60.417c1.25,-4.583 -0.834,-11.666 -2.917,-14.166c-1.25,-0 -2.917,1.25 -6.25,4.166c-10.833,10 -9.583,25 -8.333,42.5c0.416,6.25 0.833,13.334 0.416,20c0.834,8.75 -5.416,27.5 -19.166,32.084c-3.75,1.666 -7.917,2.5 -12.084,2.5c-10.416,-0 -19.166,-5.417 -23.75,-14.167c-9.166,14.583 -26.666,24.583 -42.916,24.583c-16.25,0 -17.5,-2.916 -24.167,-9.166c-1.667,-1.25 -2.917,-2.917 -4.167,-5c-1.25,1.666 -2.083,3.333 -3.333,4.583c-7.917,10.417 -21.25,16.667 -35,16.667c-13.75,-0 -25,-7.084 -30.833,-18.75c-12.917,-28.75 -6.667,-118.75 26.666,-136.25c0.834,-0.417 2.084,-0.834 2.917,-0.834c1.667,0 3.333,-0.416 5,-0.416c6.667,-0 12.083,2.083 15.833,6.666c8.334,10 5,26.667 2.084,42.917c-1.25,6.667 -2.917,15.417 -2.084,18.75l0,1.25c0,3.333 2.917,5 5,5c2.084,0 2.084,0 2.917,-1.25c7.083,-5 8.333,-15.417 9.167,-25l-0,-1.25c1.25,-14.583 11.666,-55.417 35.833,-58.333c1.055,-0.079 2.083,-0 2.083,-0l2.084,-0c17.083,4.166 15,25.833 13.333,44.583c-0.833,8.333 -1.667,19.167 -0,23.333c-0,0.417 -0,1.25 0.417,1.667c0.833,3.333 2.916,5 6.666,5c3.75,-0 7.084,-1.667 8.75,-4.583c4.584,-7.084 6.667,-19.584 8.334,-31.667c2.083,-14.583 4.166,-29.583 12.083,-39.583c-0,-0 0.417,-0.417 0.833,-0.834c6.25,-5.833 11.25,-8.333 16.25,-8.333c9.167,-0 13.334,7.917 15.834,12.5c-0,0.417 0.416,1.25 0.833,1.667c7.083,-8.334 21.667,-25.417 40.417,-25.417c2.083,-0 7.083,0.417 10,1.667l2.5,0.833c6.666,2.5 15.416,5.417 19.583,16.25c4.167,8.333 3.333,20 2.917,31.25c-0.417,9.583 -0.834,21.25 2.083,25c0.833,0.833 2.083,1.25 4.167,1.25l0.416,0c7.5,-0.417 10.417,-11.667 13.75,-35c2.917,-21.667 4.5,-48.457 27.416,-48.457c3.034,-0.164 5.186,-0.32 10.352,1.22c2.975,2.351 5.149,5.987 7.232,9.737c0.417,1.25 1.25,2.083 1.667,2.5c7.083,-8.75 21.25,-25.417 40.417,-25.417c6.305,0 10.833,1.667 10.833,1.667c7.917,2.917 20,7.083 22.5,20.833c2.917,10.417 2.5,21.667 1.667,32.084c-0,5 -0.417,10.833 -0,16.666c-0,0.834 0.833,3.334 1.25,3.75c0.416,0.834 0.833,0.834 0.833,0.834c1.25,-0 5,-2.084 7.917,-5c5.833,-5 10,-20.834 13.75,-35c6.666,-25.834 12.916,-50 31.666,-50c2.084,-0 6.19,1.035 8.75,2.5c14.167,9.583 10,28.333 6.667,44.583c-2.083,9.167 -4.167,19.583 -2.083,25.417c1.25,3.75 2.916,4.166 5,4.166c4.583,0 10.416,-3.75 12.5,-8.333c1.666,-3.333 2.083,-6.25 2.5,-10.417l-0,-3.333c1.25,-3.333 1.666,-6.25 2.5,-9.583c3.333,-17.917 7.5,-42.084 21.666,-53.334l1.25,-1.25c2.084,-1.25 4.167,-2.5 6.667,-3.333c0.833,-0 2.083,-0.417 2.917,-0.417c7.916,0 14.166,2.5 18.333,7.917c7.083,9.167 5,22.917 1.667,36.667c-0.621,2.44 -0.242,1.669 -0.834,3.75l-0.462,1.313c-0.597,2.637 -0.788,3.687 -1.621,5.77c-2.5,8.333 -5,18.333 -4.167,22.5c0.417,6.667 1.667,10 2.5,11.25c1.667,-0.833 5,-2.917 9.584,-8.333c0.416,-0.417 0.833,-1.25 1.25,-1.667c1.25,-1.667 2.083,-2.917 3.333,-4.583l0.833,-0.834c5.834,-8.75 12.084,-12.916 18.334,-12.916c6.25,-0 7.916,2.083 10.416,5.416c4.167,5.834 4.584,15.834 0.834,25.834l-1.25,3.75c-2.084,7.083 -5,16.666 -9.584,26.25c-0.833,2.083 -1.666,3.75 -2.5,5c-9.583,18.75 -22.083,28.333 -37.5,30.416l-3.75,0l-1.666,0c-4.167,33.334 -14.167,58.75 -29.584,74.167c0,-0 -6.402,6.733 -8.993,9.459c-1.69,1.778 0.056,-0.056 0,0Z" style="fill-rule:nonzero;stroke:#fff;stroke-width:10.42px;stroke-linecap:butt;stroke-miterlimit:2;"/><rect x="1008.33" y="708.333" width="83.333" height="54.167" style="fill:none;"/><clipPath id="_clip1"><rect x="1008.33" y="708.333" width="83.333" height="54.167"/></clipPath><g clip-path="url(#_clip1)"><path d="M1108.75,569.167c6.667,-0 11.667,2.083 15,6.25c6.25,7.916 4.167,20.416 0.833,32.916c0,1.667 -0.833,2.917 -1.25,4.584c-0.416,2.083 -0.833,4.166 -1.666,6.25c-2.5,9.583 -5,19.166 -4.584,24.583c0.834,9.583 2.917,15 5.834,15c2.916,0 7.083,-2.5 13.333,-10.417c0.417,-0.833 0.833,-1.25 1.667,-2.083c1.25,-1.667 2.5,-3.333 3.333,-4.583l-0,-0.834c5.833,-7.5 10.833,-11.25 15.417,-11.25c4.583,0 5.416,1.25 7.083,3.75c3.333,5 3.333,13.334 -0,22.084l-1.25,4.166c-2.083,7.5 -5,16.667 -9.167,25.834c-0.833,1.666 -1.666,2.916 -2.083,4.583c-9.167,17.5 -20.417,26.667 -34.583,27.917l-8.334,-0c-3.75,34.166 -13.75,60 -28.75,75.416c0,0 -2.083,2.084 -2.5,2.5c-2.916,2.917 -5.416,5.834 -6.25,9.167c-0.833,4.167 -1.666,8.333 -2.916,12.917c-2.917,13.333 -6.667,27.916 -10,42.5c-2.084,6.25 -8.334,25 -2.5,33.333c1.666,2.5 5,3.75 9.166,4.167c3.334,-0.417 5.417,-3.334 8.334,-7.917c2.083,-3.333 4.583,-7.5 8.75,-10c2.083,-1.25 4.583,-1.667 6.25,-1.667c3.75,0 7.083,1.667 9.166,5c3.75,6.25 2.917,15.834 0,21.667c-1.666,4.167 -3.333,9.167 -5,14.167c-6.666,18.333 -13.75,38.75 -31.25,49.583c-5,2.917 -10.416,4.167 -16.25,4.167c-15.416,-0 -28.75,-9.584 -32.916,-23.75l-0,-1.25c-12.917,23.333 -26.667,35.416 -41.25,35.416c-14.584,0 -11.25,-2.083 -17.084,-5.833c-5,-2.917 -9.166,-7.917 -12.916,-12.5c-1.667,-2.083 -3.334,-3.75 -4.584,-5.417c-4.583,10 -13.333,22.917 -29.583,30c-8.333,3.75 -16.25,5.417 -22.917,5.417c-6.666,-0 -15.833,-3.333 -20.833,-9.167c-7.083,-8.333 -8.75,-22.083 -5.833,-38.75c0.833,-5 2.083,-10.416 2.916,-15.416c1.25,-7.084 2.5,-14.167 3.75,-21.667l0,-2.083c1.667,-6.25 1.667,-7.917 -1.25,-10.834c-2.5,-2.916 -6.25,-5 -7.916,-5c-1.667,0 -0.834,0 -1.667,1.667c-5.833,25.417 -27.083,107.917 -62.917,116.667l-6.666,-0c-11.25,-0 -20.417,-4.167 -26.25,-12.5c-17.917,-24.167 -5,-77.917 4.166,-107.5l0.834,-2.084c1.666,-4.583 2.5,-7.916 5.833,-12.916c5,-7.917 13.333,-12.084 18.75,-12.917l0.417,-0c3.75,-0 6.666,1.25 8.75,3.75c5.833,6.667 3.75,20.833 2.083,33.333c-0.833,5.417 -1.667,11.25 -1.25,13.75l-0,0.834c-0,8.75 1.667,16.25 5,20c1.25,1.25 2.5,2.083 4.167,2.083c4.166,0 9.166,-5 13.75,-13.75c5.416,-12.5 11.666,-25.833 10.833,-37.917c-0,-0.416 -0.833,-1.25 -1.25,-1.666c-2.083,-3.334 -4.583,-7.084 -6.25,-11.667c-4.167,-10.833 -1.667,-18.333 1.667,-22.917c6.25,-8.75 19.583,-14.166 36.25,-14.166c16.666,-0 13.333,0.833 18.75,2.5c20,7.083 29.583,17.083 29.583,31.666c-0,5.417 -1.667,11.667 -3.333,18.75c-5,17.084 -5.834,25.834 5.416,29.584c0.834,-0 2.084,0.416 3.334,0.416c6.666,0 13.75,-4.583 15.833,-10.416c0.417,-1.667 1.25,-3.75 1.667,-5.834c5,-17.5 14.583,-49.583 38.333,-64.166c6.667,-4.584 16.25,-7.5 26.667,-7.5c10.416,-0 10.416,0.833 15.416,2.083c1.667,-0 3.75,0.833 5.417,1.667c2.083,0.833 3.75,1.25 4.583,1.25c0.834,-0 0.834,-0 1.667,-2.084c0.833,-2.916 1.25,-5.833 1.25,-9.166l-0,-9.584c-0,-4.583 -0.417,-6.666 -2.917,-8.333c-13.75,-5 -24.583,-17.083 -29.583,-32.917c-5.417,-19.166 -1.667,-39.583 10.417,-55c0.833,-0.833 1.25,-1.25 1.25,-1.666c-0.834,0.833 -2.084,2.5 -2.917,3.333c-0.417,0.833 -0.833,1.25 -1.25,1.667c-0.833,1.25 -1.667,2.083 -2.917,3.333c-5.833,6.667 -12.083,14.167 -20.833,18.333l-0.417,0c-4.166,1.25 -8.333,2.084 -12.083,2.084c-10,-0 -18.333,-4.167 -24.583,-12.084c-9.167,-12.083 -11.667,-31.666 -6.667,-51.25c2.5,-9.166 2.083,-15.416 -0.833,-20.833c-1.667,-3.333 -3.334,-4.583 -4.167,-4.583c-0.833,-0 -0,-0 -0.417,-0c-18.75,6.666 -20.833,28.333 -18.75,45c0,5.416 0,10.833 0.417,15.833l-0,8.333c-0,6.25 -0,15.417 -7.917,24.167c-4.583,5 -11.666,7.917 -19.166,7.917c-7.5,-0 -14.584,-3.334 -18.75,-8.75c-2.5,-3.334 -3.334,-7.5 -3.75,-11.25c-0,-0 -0,0.416 -0.417,0.833c-0.833,1.25 -1.667,2.5 -2.917,3.333c-0.833,1.25 -2.083,2.084 -2.916,3.334c-7.5,8.75 -15.834,18.333 -28.75,18.75l-1.667,-0c-11.25,-0 -20.417,-4.167 -26.667,-12.5c-9.583,-12.5 -11.25,-34.167 -5,-57.084c1.667,-6.666 -1.25,-17.083 -5.833,-19.583c-2.5,0 -5.833,1.667 -9.583,5.417c-12.084,11.25 -10.834,28.333 -9.584,45.833c0.417,6.667 0.834,13.333 0.417,20c0.833,7.083 -4.583,24.167 -16.667,27.917c-3.333,1.25 -7.083,2.083 -10.833,2.083c-12.5,0 -21.667,-8.75 -22.5,-21.25c0,0.833 -0.833,1.667 -1.25,2.5c-6.667,16.667 -25.417,29.583 -42.917,29.583c-17.5,0 -15.833,-2.916 -21.666,-7.916c-3.334,-2.917 -5.417,-7.084 -6.667,-11.667c-1.667,4.167 -3.75,7.917 -6.667,11.25c-7.5,9.583 -19.583,15.417 -31.666,15.417c-12.084,-0 -22.084,-5.834 -27.084,-16.667c-12.083,-26.667 -6.25,-114.167 25,-130.833l1.25,-0c1.667,-0 3.334,-0.417 4.584,-0.417c5.416,0 9.583,1.667 12.5,5.417c7.083,8.333 4.166,24.166 1.25,39.583c-1.667,7.917 -2.917,16.25 -2.084,20.417l0,0.833c0,5.833 5,9.167 9.167,9.167c4.167,-0 4.167,-0.834 5.833,-2.084c8.334,-5.833 9.584,-17.5 10.834,-27.916l-0,-1.25c1.25,-13.75 11.666,-53.75 33.75,-55l0.833,-0c13.333,3.333 11.667,22.083 10,40.416c-0.833,10 -2.083,20.417 0,25.417l0,0.833c1.667,7.5 8.333,8.334 10.833,8.334c4.584,-0 9.584,-2.5 12.084,-6.25c5.416,-8.334 7.083,-21.25 9.166,-33.75c2.084,-13.75 4.167,-28.334 11.25,-37.5l0,-0.417c5,-5 9.584,-7.083 13.334,-7.083c6.666,-0 10,5.833 12.083,10.416c1.25,2.084 2.917,5.417 4.167,5.417c1.25,0 0.833,0 2.083,-0.833l1.25,-1.667c6.667,-7.917 20.417,-24.167 37.5,-24.167c17.083,0 5.833,0.417 8.75,1.25l2.5,0.834c6.667,2.5 13.75,5 17.083,13.75c3.75,7.5 2.917,18.75 2.5,29.166c-0.416,11.25 -1.25,23.334 3.334,27.917c1.666,1.667 4.166,2.5 7.5,2.5l0.833,0c11.25,-0.833 14.583,-15.833 17.5,-38.75c2.917,-20.833 6.667,-45 25.833,-45c19.167,0 2.084,0 3.334,0c0.416,0 1.25,0 1.666,0.833c2.5,1.667 4.167,4.584 6.25,7.917c0.834,2.083 3.75,6.25 4.584,6.25c0.833,0 0.833,0 2.083,-1.25l0.833,-1.25c6.667,-7.917 20.417,-24.583 37.917,-24.583c17.5,-0 9.583,1.666 9.583,1.666c7.917,2.917 17.5,6.25 19.584,17.917c2.916,10.417 2.083,20.833 1.666,31.25c0,5.833 -0.416,11.25 0,17.083c0,1.25 0.834,5 2.084,5.834c1.666,2.5 2.916,2.916 4.166,2.916c3.334,0 7.917,-2.916 10.834,-5.833c6.666,-5.417 10.833,-21.667 15,-37.5c6.25,-23.75 12.083,-46.25 27.5,-46.25c15.416,0 3.333,0 5.416,0.833c0,0 0.834,0 0.834,0.417c12.083,8.333 8.333,24.583 5,40.417c-2.084,10.416 -4.584,20.833 -2.084,27.916c1.667,4.584 4.584,7.084 9.167,7.084c6.25,-0 13.75,-5 16.25,-10.834c1.667,-3.75 2.083,-7.5 2.917,-11.666l-0,-2.917c0.833,-2.917 1.666,-5.833 2.083,-9.167c3.333,-17.083 7.5,-40.416 20,-50.833c2.083,-1.667 4.167,-2.917 6.667,-3.75l1.25,0m-65,170.417c8.333,-0 17.5,-4.167 25,-12.5c-6.25,2.916 -13.334,5.416 -22.084,5.416l-0.833,0c-9.583,0 -17.917,-3.75 -25.417,-8.333c6.25,10 14.584,15.417 23.334,15.417Zm-51.25,175c5.833,-0 11.666,-7.084 13.75,-13.334l-0,-0.833c2.5,-5.833 3.75,-14.167 1.25,-18.75c-0.834,-1.667 -2.5,-2.917 -4.584,-3.333l-2.916,-0c-7.917,-0 -14.584,7.916 -17.084,15.833c-0.833,2.917 -3.333,13.75 5,19.583c1.667,1.25 3.334,1.667 5,1.667m119.167,-352.917c-1.25,0 -2.917,0 -4.167,0.834c-2.5,0.833 -4.583,2.083 -6.666,3.333l-0.834,-0l-2.083,2.083c-15,12.5 -19.583,37.5 -22.917,55.417c-0.833,3.333 -1.25,6.25 -1.666,9.167l-0,3.333l-0.417,-0c-0.417,4.167 -0.833,6.667 -2.083,9.167c-1.25,2.5 -0,-0 -0,-0c-1.25,2.916 -5.417,5.833 -8.75,5.833c-3.334,-0 -0.834,-0 -0.834,-0l-0.416,-1.25c-0.417,-1.25 -0,-0 -0,-0c-1.667,-4.583 0.833,-15.417 2.5,-22.917c3.75,-16.666 7.916,-37.5 -8.334,-48.75c-0.833,-0.833 -1.666,-1.25 -2.916,-1.666c-1.25,-0.417 -0,-0 -0,-0c-2.5,-0.834 -5.417,-1.25 -7.917,-1.25c-22.083,-0 -28.75,26.666 -35.417,52.083l0,0.833c-3.333,12.084 -7.916,28.75 -12.5,32.5l0,0.417c-0.833,0.833 -1.666,1.667 -2.5,2.083l0,-15.833c0.417,-10.417 1.25,-22.083 -2.083,-33.333c-3.333,-15.834 -16.667,-20.417 -25,-23.334c-8.333,-2.916 0,0 0,0l-0.833,0c-3.75,-1.666 -7.5,-2.083 -11.25,-2.083c-17.5,-0 -31.667,12.917 -39.584,22.5c-1.666,-2.917 -4.166,-6.25 -7.5,-8.333c-1.666,-0.834 -3.333,-1.667 -5,-1.667l-4.583,-0c-26.667,-0 -30.833,30 -34.167,52.083c-1.666,11.667 -4.583,31.25 -10,31.25l-1.666,0c-2.084,-2.916 -1.25,-15 -0.834,-21.666c0.417,-11.667 1.25,-23.75 -3.333,-32.917c-4.583,-12.083 -15,-15.833 -22.083,-18.333l-2.5,-0.834c-3.75,-1.25 -7.5,-2.083 -11.667,-2.083c-17.917,-0 -31.25,12.917 -39.583,22.5c-2.917,-5 -8.334,-11.25 -17.5,-11.25c-9.167,-0 -15,5.417 -19.167,9.167c-4.167,3.75 0,-0 0,-0c-0.417,0.416 -0.833,0.833 -1.25,1.25c-8.75,10.833 -10.833,26.666 -12.917,41.666c-1.666,11.667 -3.333,23.334 -7.5,30c-1.25,1.667 -3.333,2.5 -5.416,2.5c-2.084,0 -2.5,-0.833 -2.5,-2.083c-0,-0.417 -0,-1.25 -0.417,-2.083c-1.25,-3.334 0,-15 0,-21.667c2.083,-19.583 4.167,-43.75 -16.25,-49.167l-4.167,0c-29.583,2.5 -39.583,50.417 -40.833,62.5l0,0.834c-0.833,8.75 -2.083,18.333 -7.083,21.666c-5,3.334 -0,0 -0,0l-0.417,0c-0.417,0 -0.833,0 -1.25,-0.833l0,-2.083c-0.417,-2.5 1.25,-11.667 2.083,-17.084c3.334,-17.083 6.667,-35 -2.916,-46.25c-2.917,-3.75 -8.75,-8.333 -18.75,-8.333c-10,-0 -3.75,-0 -5.834,0.417c-1.25,-0 -2.5,0.416 -3.75,1.25c-35.833,19.166 -42.5,111.25 -28.75,141.666c6.667,13.334 19.584,21.667 34.584,21.667c15,-0 29.166,-7.083 37.916,-18.333c0.417,0.416 1.25,1.25 1.667,1.666c7.083,6.25 16.667,10 26.667,10c15.833,0 32.5,-8.75 42.916,-21.666c5.417,6.666 14.167,10.833 23.75,10.833c9.584,-0 9.584,-0.833 13.75,-2.5c15.834,-5.417 22.5,-25.833 22.084,-35.833c-0,-7.084 -0,-14.167 -0.417,-20.417c-1.25,-16.25 -2.083,-30.833 7.083,-39.167c0.417,-0.416 1.25,-0.833 1.667,-1.25c0.833,2.5 1.25,5.417 0.417,7.084c-7.084,25.416 -4.584,49.583 6.25,64.166c7.916,10.417 19.166,15.834 33.333,15.834c14.167,-0 1.667,-0 1.667,-0c14.583,-0.834 24.583,-10.417 31.666,-18.334c5.417,7.5 14.584,11.667 25,11.667c10.417,-0 19.167,-4.167 25.417,-10.833c10,-11.25 10,-23.334 10,-29.584l0,-8.333c0,-5 -0.417,-10.833 -0.833,-15.833l-0,-0.417c-1.667,-17.083 1.25,-28.333 8.75,-34.167c0.833,2.084 1.25,5.834 -0.834,12.917c-5.833,22.083 -2.916,44.583 7.917,58.75c7.5,10 18.75,15.417 31.25,15.417c12.5,-0 9.583,-0.834 14.583,-2.084c0.834,0 1.25,-0.416 1.667,-0.833c0.417,-0 1.25,-0.417 1.667,-0.833c-0.834,8.333 -0,17.083 2.5,25.833c5.416,17.917 17.083,31.25 32.083,37.5l0,11.667c-0.833,-0 -2.083,-0.417 -2.917,-0.834c-5.416,-1.666 -11.666,-2.5 -17.5,-2.5c-12.083,0 -23.333,2.917 -31.25,8.75c-25.833,16.25 -36.25,50.417 -41.666,68.75c-0.834,2.084 -1.25,4.167 -1.667,5.834c-0.833,2.083 -4.583,5 -7.917,5c-3.333,-0 -0.833,-0 -0.833,-0c-3.333,-0.834 -4.583,-1.667 0,-19.167c2.083,-7.083 3.75,-14.167 3.75,-20.833c0,-18.334 -11.667,-30.834 -35.417,-39.167c-6.25,-2.083 -13.75,-2.917 -21.666,-2.917c-20,0 -35.417,6.667 -43.334,17.917c-3.333,5 -8.333,15.417 -2.5,30.417c2.084,5.416 4.584,9.583 7.084,13.333c-0,9.583 -5.417,21.25 -10,31.25c-2.084,4.167 -4.167,6.667 -5.417,7.917c-0.833,-2.5 -2.083,-6.25 -1.667,-12.084l0,-2.916c0,-1.667 0.834,-7.917 1.25,-10.834c2.084,-14.166 4.584,-30.416 -3.75,-40c-3.75,-4.166 -9.166,-6.666 -15,-6.666c-5.833,-0 -0.416,-0 -0.833,-0l-0.833,-0c-7.5,1.25 -18.334,6.666 -24.584,16.666c-3.75,5.834 -5.416,10.417 -6.666,15l-0.834,2.5c-12.083,38.334 -22.083,89.167 -2.916,115c7.5,10.417 18.75,15.834 32.916,15.834c14.167,-0 4.584,-0 7.084,-0.417l1.25,-0c30,-7.5 50,-55 60.833,-92.083l-0.833,4.166c-0.834,5 -2.084,10.417 -2.917,15.417c-3.75,19.167 -1.25,35.417 7.5,45.833c6.667,7.917 16.25,12.084 27.5,12.084c11.25,-0 16.667,-2.084 26.25,-6.25c13.333,-5.834 22.083,-14.584 27.917,-23.334c3.333,3.75 7.083,7.917 11.666,10.417c6.667,4.583 14.167,7.083 21.25,7.083c14.584,0 28.334,-9.166 40.417,-26.666c7.917,10 20.417,16.25 34.167,16.25c13.75,-0 14.166,-1.667 20.416,-5.417c6.25,-3.75 0,-0 0,-0c20,-12.5 27.917,-35.417 34.584,-53.75l-0,-1.25c2.083,-4.583 3.333,-8.75 5,-12.5c3.75,-7.917 4.583,-20.833 -0.834,-29.583c-3.75,-5.834 -9.583,-9.167 -16.25,-9.167c-6.666,-0 -6.666,0.833 -9.583,2.083c-0.833,0 -1.25,0.417 -1.667,0.834c-5.833,3.333 -8.75,8.75 -11.25,12.5c-0.833,0.833 -1.666,2.916 -2.5,3.75c-0.833,-0 -1.25,-0 -1.25,-0.417c-0.833,-0.833 -2.5,-5.833 3.334,-25.417l-0,-0.833c4.166,-17.917 7.5,-31.25 10,-42.917c0.833,-4.583 2.083,-8.75 2.916,-12.916c0.834,-1.667 3.334,-4.584 4.167,-5.417c0.833,-0.833 0,-0 0,-0l2.5,-2.5c15.417,-15.417 25.417,-40.417 30,-72.917l2.5,0c16.667,-2.083 30.417,-12.916 40.417,-32.5c0.833,-1.666 1.666,-3.333 2.5,-5l-0,-0.833c4.583,-9.583 7.5,-19.583 9.583,-26.25l1.25,-3.75c4.167,-11.667 3.333,-22.5 -1.25,-29.583c-3.333,-4.584 -8.333,-7.5 -13.75,-7.5c-5.417,-0 -15,5 -21.667,15l0,0.833l-0.416,-0c-1.25,1.667 -2.084,3.333 -2.917,4.583c-0.417,0.834 -0.833,1.25 -1.25,1.667c-1.25,1.667 -2.917,3.333 -3.75,4.167c0,-1.25 0,-2.917 -0.417,-4.584l0,-0.416c-0.416,-3.75 2.5,-14.167 4.167,-21.25c0.417,-2.084 1.25,-4.167 1.667,-6.25l-0,-0.834c-0,-1.25 0.833,-2.5 0.833,-3.75c3.75,-14.583 5.833,-29.583 -2.5,-40c-3.333,-4.166 -10,-11.25 -17.083,-11.25l-5.417,-1.25Zm-119.167,343.75c-3.75,-2.5 -2.916,-7.916 -2.083,-10.416c1.667,-5.417 5.833,-10 9.167,-10c3.333,-0 -0,-0 0.416,-0c0.417,2.083 0,6.666 -1.666,11.25l-0,0.833c-1.25,4.167 -4.167,7.083 -5.417,7.917l-0.417,0.416Z" style="fill:#fff;fill-rule:nonzero;"/></g><rect x="1008.33" y="708.333" width="83.333" height="54.167" style="fill:none;stroke:#000;stroke-width:0.83px;stroke-miterlimit:1.5;"/><g><path d="M568.75,1058.75l-5,0c-15,-1.667 -33.333,-5.833 -43.333,-19.167c-9.584,-12.916 -12.917,-30 -8.75,-45.416c4.166,-15.417 15.416,-27.5 31.25,-34.584c-5.834,-5.416 -9.584,-12.5 -9.584,-21.666c0,-27.084 5.417,-50.834 17.084,-70.834c20.833,-35.833 58.333,-55 112.083,-57.5l10.417,0c31.25,0 53.75,7.084 66.666,20.834c6.25,6.666 13.334,17.916 12.084,35l-0,2.5c0.416,8.333 1.666,27.083 -30,45c9.166,13.333 34.583,57.916 -3.334,97.916c-13.75,14.584 -28.75,22.084 -43.75,22.084c-16.25,-0 -29.166,-9.167 -35.416,-17.5c-2.084,-2.5 -3.334,-5 -4.584,-7.5c-11.25,17.083 -35.833,51.25 -66.666,51.25l0.833,-0.417Zm-18.75,-93.75c2.917,5 10,13.333 22.5,13.333c5,0 10.833,-1.25 16.667,-4.166c-2.084,0.416 -3.75,0.833 -5.834,0.833l-2.5,-0c-8.75,-0.833 -20.833,-3.75 -30.416,-9.583l-0.417,-0.417Zm127.083,-40.417c-2.083,0 -4.166,0.417 -6.25,1.667l-0.833,0c-7.083,4.167 -9.167,12.5 -8.333,19.583c0.833,6.25 5,13.334 13.75,14.584l1.25,-0c3.75,-0 6.25,-2.5 7.916,-4.584c3.75,-5.416 5,-13.75 2.5,-21.25c-1.666,-4.583 -4.583,-10.416 -10.416,-10.416l0.416,0.416Zm-8.333,-70.833c-6.25,0 -13.333,1.667 -21.25,3.333c-25.417,5.417 -32.083,17.917 -34.167,25c-2.083,8.334 0.834,15.834 4.584,19.167c2.916,2.5 5,6.25 5.416,10.417c0.417,4.166 0.834,10.416 -0.833,17.5c4.583,-12.917 7.083,-26.25 9.167,-37.084c0.833,-3.333 1.25,-6.666 2.083,-9.166c2.917,-12.084 12.083,-21.25 22.083,-21.25c10,-0 10.289,0.845 13.206,4.178c3.333,3.334 5.128,10.822 4.711,23.322c-0,7.083 1.25,9.166 1.667,9.583l0.833,0c8.489,-0.16 15.24,-12.53 16.808,-15.25l0.692,-1.417c0.833,-3.75 2.5,-14.166 -3.333,-21.25c-4.167,-5 -11.25,-7.083 -21.667,-7.083Z" style="fill-rule:nonzero;stroke:#fff;stroke-width:10.42px;stroke-linecap:butt;stroke-miterlimit:2;"/><path d="M784.583,850.833c-8.333,0 -14.583,-5 -17.5,-14.166l0,-0.417c-1.25,-8.333 1.25,-17.083 7.5,-24.583c6.667,-8.334 16.25,-14.167 25,-14.584l2.084,0c5,0 10,2.084 13.333,5l13.75,-6.25l1.667,0c0.833,0 2.083,0 2.916,0.834c1.25,1.25 1.667,2.916 1.25,4.166l-2.5,8.334l6.25,1.666c1.667,0.417 2.917,1.667 2.917,3.334c0,1.666 -0.417,3.333 -2.083,4.166l-25,14.584c-7.5,10.416 -19.584,17.916 -29.584,17.916Z" style="fill-rule:nonzero;stroke:#fff;stroke-width:10.42px;stroke-linecap:butt;stroke-miterlimit:2;"/><path d="M782.52,1010.37c-13.75,-0 -27.103,-6.202 -32.52,-17.869c-10.417,-19.167 -8.75,-52.5 4.167,-98.333c5,-18.334 12.083,-30 22.916,-35.417c10.834,-5.417 0,0 0,0c3.334,-1.25 6.667,-2.083 9.584,-2.083c4.166,-0 7.916,1.666 10.833,4.583c7.083,7.917 5.417,24.167 4.167,37.5c-0,3.333 -0.834,6.667 -0.834,9.167c0,8.75 0.417,17.916 5.417,18.75c2.5,-0.834 5.833,-4.167 8.75,-8.75c7.5,-11.667 11.25,-28.334 9.583,-34.584c-0.833,-2.916 -1.666,-5.416 -2.916,-8.333c-1.667,-5 -3.75,-10 -4.167,-15.417c0,-8.333 2.083,-15.416 7.5,-20.833c7.083,-7.5 19.167,-11.667 33.75,-11.667c26.25,0 53.333,13.75 53.75,36.667c0.833,6.667 -0.833,13.333 -2.5,20c-1.667,7.5 -3.75,15 -1.25,21.25c0.833,1.667 3.333,2.917 6.25,2.917c2.917,-0 3.333,-0 4.583,-1.25c6.25,-2.917 8.334,-10 10.834,-17.5c0.416,-1.25 0.833,-2.5 1.25,-3.75c8.75,-29.584 30.416,-64.167 64.166,-64.167c33.75,-0 3.334,-0 5,-0c2.917,-0 6.25,0.833 9.167,1.25c2.5,0.417 5,0.833 7.083,0.833c2.084,0 2.917,-0.416 3.334,-0.833c0.833,-0.833 1.666,-2.5 1.666,-8.333c-0.833,-20.417 1.25,-47.084 12.917,-59.167c4.583,-4.583 10,-7.083 16.25,-7.083c6.25,-0 7.083,0.833 10.833,2.083c14.584,6.667 21.25,24.583 18.334,37.917c-0.834,4.166 -2.5,7.916 -3.75,11.25c-1.25,2.916 -2.084,5.833 -2.917,8.333c-1.25,5.833 -2.917,11.667 -4.167,17.5c-2.5,10.417 -5,21.667 -7.916,32.083c-3.75,12.5 -4.167,23.334 -1.667,27.084c0.417,0.833 1.25,1.25 3.333,1.25l2.084,-0c2.083,-0.834 4.166,-3.334 6.666,-5.417c2.917,-3.333 6.25,-6.667 10.417,-7.917c1.667,-0.833 3.75,-1.25 5.833,-1.25c4.584,0 8.75,2.084 11.667,5.417l0.417,0c6.25,9.583 3.333,21.25 -0,30.417c-5,16.25 -20.834,65.416 -54.584,65.416c-5.833,0 -12.5,-1.666 -18.75,-4.583c-5.416,-2.5 -8.75,-6.25 -11.666,-9.583c-1.25,-1.25 -3.334,-3.334 -3.75,-3.75c-0,-0 -2.084,-0 -7.084,7.916c-9.583,13.334 -21.25,20.417 -33.333,20.417c-12.083,-0 -21.667,-5.417 -31.25,-15.833c-2.083,-2.084 -2.917,-2.084 -2.917,-2.084c-0.833,0 -3.333,2.917 -4.583,5c-1.667,2.084 -3.333,4.167 -5.417,6.25c-10.416,11.25 -27.5,18.75 -42.5,18.75c-15,0 -31.25,-11.666 -32.5,-30.833c-0.833,-12.917 1.25,-25.833 3.75,-37.917c1.25,-7.083 2.917,-14.166 3.334,-21.25c-0,-4.166 -1.25,-9.583 -3.334,-10c-0.833,0.417 -2.083,4.584 -2.5,7.084c0,1.25 -0.416,2.083 -0.833,3.333c-6.25,23.333 -16.667,57.083 -33.333,81.667c-7.084,10 -14.167,16.666 -22.084,20.416c-4.583,2.084 -9.583,3.334 -14.583,3.334l0.02,-0.048Zm213.73,-134.536c-4.583,0 -9.583,4.167 -12.5,10c-2.083,4.584 -2.917,11.667 1.25,16.25c2.083,2.084 3.333,2.084 3.75,2.084c3.75,-0 8.75,-6.25 10,-11.25l-0,-0.834c2.5,-6.666 2.5,-12.083 1.25,-15c0,-0.416 -0.833,-1.25 -2.5,-1.666l-1.25,-0l-0,0.416Z" style="fill-rule:nonzero;stroke:#fff;stroke-width:10.42px;stroke-linecap:butt;stroke-miterlimit:2;"/></g><path d="M744.167,1112.92c2.083,-0 3.75,0.416 5.833,0.833l0,2.5c2.917,0 5.833,0.417 8.75,0.833l0,-10.416c-3.333,-0 -6.667,-0.417 -10,-0.834c-1.25,-1.666 -2.917,-2.916 -4.167,-4.583c0,-4.167 0.834,-8.333 1.25,-12.5c1.667,-1.25 3.334,-2.5 5,-3.75c3.334,0 7.084,0.833 10.417,0.833c1.25,1.667 2.917,2.917 4.167,4.584l-0,3.75l-5.417,-0l0,-2.5c-2.917,-0 -5.417,-0.417 -8.333,-0.834c-0,3.334 -0.417,7.084 -0.834,10.417c3.334,0 6.667,0.417 9.584,0.833c1.25,1.667 2.916,2.917 4.583,4.584l0,12.5c-1.667,1.25 -3.333,2.5 -5,3.75c-3.75,-0 -7.5,-0.417 -11.667,-0.834c-1.666,-1.666 -2.916,-3.333 -4.583,-4.583l0,-3.75l0.417,-0.833Z" style="fill:#fff;fill-rule:nonzero;"/><path d="M770.417,1122.92c-0,-12.084 -0,-24.584 0.416,-36.667l5.417,0l0,36.667l-5.833,-0Z" style="fill:#fff;fill-rule:nonzero;"/><path d="M782.5,1122.92c-0.417,-12.084 -0.833,-24.584 -0.417,-36.667l5.417,0c3.75,7.917 7.5,15.833 11.667,23.75c-0.417,-7.917 -0.834,-15.833 -1.25,-23.75l5.416,0c0.834,12.083 1.667,24.167 2.917,36.25l-5.833,0c-4.584,-7.917 -8.75,-15.833 -12.5,-23.75c-0,7.917 0.416,15.833 0.833,24.167l-6.25,-0Z" style="fill:#fff;fill-rule:nonzero;"/><path d="M816.25,1121.25c-1.667,-1.25 -3.333,-2.5 -5,-3.75c-1.25,-9.167 -2.083,-18.75 -2.5,-27.917c1.25,-1.666 2.5,-2.916 3.75,-4.583c3.333,0 6.667,-0.833 9.583,-1.25c1.667,1.25 2.917,2.5 4.584,3.333c-0,2.084 0.416,4.167 0.833,6.25c-1.667,0 -3.333,0.417 -5.417,0.834c0,-1.667 -0.416,-3.334 -0.416,-5c-2.5,-0 -5,0.833 -7.917,0.833c0.833,8.75 1.667,17.083 2.917,25.833c2.916,0 5.833,-0.833 8.333,-1.25c0,-1.666 -0.417,-3.333 -0.833,-5c1.666,0 3.75,-0.416 5.416,-0.833c0,2.083 0.834,4.167 1.25,6.25c-1.25,1.667 -2.5,3.333 -3.75,5c-3.75,0.417 -7.083,0.833 -10.833,1.25Z" style="fill:#fff;fill-rule:nonzero;"/><path d="M837.083,1118.33c-2.5,-12.083 -4.583,-24.166 -6.25,-35.833c5.834,-0.833 11.667,-2.083 17.5,-3.75c0,1.667 0.834,3.333 0.834,5c-4.167,0.833 -8.334,2.083 -12.5,2.917c0.416,3.333 1.25,6.666 1.666,10.416c2.5,-0.416 5,-1.25 7.917,-1.666c0,1.666 0.833,3.333 1.25,5c-2.5,0.416 -5.417,1.25 -7.917,1.666c0.834,3.334 1.25,6.667 2.084,10.417c4.583,-0.833 9.166,-1.667 13.333,-2.917c0.417,1.667 0.833,3.334 1.25,5c-6.25,1.667 -12.917,2.917 -19.167,4.167l0,-0.417Z" style="fill:#fff;fill-rule:nonzero;"/><path d="M881.667,1106.67c-0.417,-1.667 -1.25,-3.334 -1.667,-5c1.667,-0.417 3.333,-1.25 5,-1.667c-2.5,-7.083 -4.583,-14.167 -7.083,-21.25c-1.25,0 -2.5,0.833 -3.334,1.25c0,-1.25 -0.833,-2.5 -1.25,-3.75c0.834,-2.083 1.25,-4.167 2.084,-6.25c1.666,-0.417 2.916,-1.25 4.583,-1.667c2.917,10 6.25,19.584 10,29.584c1.667,-0.834 3.333,-1.25 5,-2.084c0.417,1.667 1.25,3.334 2.083,5c-5,2.084 -10,3.75 -15.416,5.417l-0,0.417Z" style="fill:#fff;fill-rule:nonzero;"/><path d="M900.417,1091.25c1.666,-0.833 3.333,-1.25 5,-2.083c-0,0.833 0.833,1.666 0.833,2.5c2.5,-1.25 5,-2.084 7.083,-3.334c-1.25,-3.333 -2.916,-6.25 -4.166,-9.583c-2.5,1.25 -5.417,2.5 -7.917,3.75c-1.667,-0.833 -3.333,-1.667 -5.417,-2.083c-1.666,-3.75 -2.916,-7.917 -4.166,-11.667c0.833,-1.667 1.25,-3.75 2.083,-5.417c2.917,-1.25 5.417,-2.5 8.333,-3.75c1.667,0.834 3.334,1.25 5,2.084c3.75,8.75 7.5,17.083 11.667,25.416c-0.833,2.084 -1.25,3.75 -2.083,5.834c-2.917,1.666 -6.25,2.916 -9.167,4.166c-1.667,-0.833 -3.75,-1.25 -5.417,-2.083c-0.416,-1.25 -0.833,-2.083 -1.25,-3.333l-0.416,-0.417Zm2.916,-26.667c-2.083,1.25 -4.583,2.084 -6.666,2.917c1.25,3.333 2.5,6.25 3.75,9.583c2.5,-0.833 4.583,-2.083 6.666,-3.333c-1.25,-3.333 -2.5,-6.25 -4.166,-9.583l0.416,0.416Z" style="fill:#fff;fill-rule:nonzero;"/><path d="M921.667,1081.25c1.666,-0.833 2.916,-1.667 4.583,-2.5c0,0.833 0.833,1.667 1.25,2.5c2.5,-1.25 4.583,-2.5 6.667,-3.75c-1.667,-2.917 -3.334,-6.25 -5,-9.167c-2.5,1.25 -5,2.917 -7.5,4.167c-1.667,-0.417 -3.75,-1.25 -5.417,-1.667c-1.667,-3.75 -3.333,-7.5 -5,-11.25c0.417,-1.666 1.25,-3.75 1.667,-5.416c2.5,-1.25 5.416,-2.917 7.916,-4.584c1.667,0.417 3.334,1.25 5,1.667c4.167,8.333 8.75,16.667 13.334,24.583c-0.417,2.084 -0.834,3.75 -1.667,5.834c-2.917,1.666 -5.833,3.333 -8.75,5c-2.083,-0.417 -3.75,-1.25 -5.833,-1.667c-0.417,-1.25 -1.25,-2.083 -1.667,-3.333l0.417,-0.417Zm0.833,-26.667c-2.083,1.25 -4.167,2.5 -6.25,3.334c1.667,3.333 2.917,6.25 4.583,9.166c2.084,-1.25 4.167,-2.5 6.667,-3.75c-1.667,-2.916 -3.333,-6.25 -4.583,-9.166l-0.417,0.416Z" style="fill:#fff;fill-rule:nonzero;"/><path d="M947.083,1075.83c-0.833,-1.666 -1.666,-2.916 -2.5,-4.583c1.25,-0.833 2.917,-1.667 4.167,-2.917c-3.75,-6.25 -7.5,-12.5 -11.25,-19.166c-0.833,0.833 -2.083,1.25 -2.917,2.083c-0.416,-1.25 -1.25,-2.083 -1.666,-3.333l-0,-6.25c1.25,-0.834 2.5,-1.667 3.75,-2.5c5,9.166 10.416,17.916 16.25,26.666c1.25,-0.833 2.916,-2.083 4.166,-2.916c0.834,1.25 2.084,2.916 2.917,4.166c-4.167,2.917 -8.75,5.834 -12.917,8.75Z" style="fill:#fff;fill-rule:nonzero;"/></g></svg>